<svg width="24" height="27" viewBox="0 0 24 27" fill="none" xmlns="http://www.w3.org/2000/svg">
<path fill-rule="evenodd" clip-rule="evenodd" d="M5.89063 22.5307C6.20307 22.4715 6.51088 22.4389 6.8153 22.4326C8.53148 22.397 9.90967 23.2024 11.1605 24.252L9.87494 25.784C8.77273 24.8592 7.86097 24.4113 6.85669 24.4321C5.82095 24.4536 4.45832 24.9777 2.48785 26.5558L0.985513 25.2951C2.19746 23.0806 2.47697 21.6476 2.31823 20.6239C2.16432 19.6313 1.56495 18.8111 0.462742 17.8863L1.74832 16.3542C2.99916 17.4038 4.03159 18.6212 4.29462 20.3174C4.34127 20.6184 4.36257 20.9272 4.35852 21.2452L21.4992 0.817703L23.0313 2.10328L5.89063 22.5307Z" fill="black"/>
</svg>
