<svg width="1354" height="169" viewBox="0 0 1354 169" fill="none" xmlns="http://www.w3.org/2000/svg">
<path d="M36.67 166H0.220001V3.19H39.1L97.42 80.221L119.776 114.484H122.449L120.748 81.679V3.19H157.198V166H118.318L58.297 88.24L37.642 57.622H35.212L36.67 87.511V166ZM241.904 168.43C224.246 168.43 209.504 165.595 197.678 159.925C185.852 154.255 176.942 146.155 170.948 135.625C164.954 125.095 161.957 112.54 161.957 97.96V3.19H198.407V95.287C198.407 104.521 199.703 111.973 202.295 117.643C205.049 123.151 209.585 127.12 215.903 129.55C222.383 131.818 231.05 132.952 241.904 132.952C253.082 132.952 261.83 131.818 268.148 129.55C274.466 127.12 278.921 123.151 281.513 117.643C284.105 111.973 285.401 104.521 285.401 95.287V3.19H321.851V97.96C321.851 112.54 318.854 125.095 312.86 135.625C306.866 146.155 297.956 154.255 286.13 159.925C274.466 165.595 259.724 168.43 241.904 168.43ZM363.53 166H315.902L379.325 85.567V82.894L315.902 3.19H363.53L409.214 61.267H411.887L455.87 3.19H503.498L440.318 83.623V86.296L503.498 166H455.87L410.429 107.194H407.756L363.53 166ZM603.131 166H534.605V133.195H603.131C614.309 133.195 623.219 131.899 629.861 129.307C636.665 126.553 641.606 121.693 644.684 114.727C647.924 107.599 649.544 97.555 649.544 84.595C649.544 71.473 647.924 61.429 644.684 54.463C641.606 47.497 636.665 42.718 629.861 40.126C623.219 37.372 614.309 35.995 603.131 35.995H534.605V3.19H603.131C620.627 3.19 635.693 6.42999 648.329 12.91C661.127 19.39 671.009 28.705 677.975 40.855C684.941 53.005 688.424 67.585 688.424 84.595C688.424 101.605 684.941 116.185 677.975 128.335C671.009 140.485 661.127 149.8 648.329 156.28C635.693 162.76 620.627 166 603.131 166ZM561.092 166H524.642V3.19H561.092V166ZM727.322 166H690.872V3.19H727.322V166ZM828.653 166H701.078V133.195H828.653V166ZM825.008 100.39H701.078V67.828H825.008V100.39ZM828.653 35.995H701.078V3.19H828.653V35.995ZM905.627 168.43C889.265 168.43 875.333 166.324 863.831 162.112C852.329 157.738 843.581 151.339 837.587 142.915C831.593 134.329 828.596 123.718 828.596 111.082V109.624H865.046V113.998C865.046 119.02 866.099 123.07 868.205 126.148C870.473 129.226 874.523 131.494 880.355 132.952C886.187 134.41 894.611 135.139 905.627 135.139C915.347 135.139 922.799 134.653 927.983 133.681C933.167 132.547 936.731 130.846 938.675 128.578C940.619 126.31 941.591 123.394 941.591 119.83C941.591 114.808 939.89 111.163 936.488 108.895C933.248 106.627 927.497 104.764 919.235 103.306L873.551 96.745C863.831 95.125 855.488 92.452 848.522 88.726C841.718 85 836.453 80.059 832.727 73.903C829.001 67.585 827.138 59.971 827.138 51.061C827.138 44.905 828.434 38.83 831.026 32.836C833.78 26.842 838.073 21.496 843.905 16.798C849.737 11.938 857.351 8.04999 866.747 5.13399C876.305 2.21799 887.969 0.759998 901.739 0.759998C918.425 0.759998 932.114 3.19 942.806 8.04999C953.66 12.748 961.76 19.471 967.106 28.219C972.452 36.805 975.125 46.768 975.125 58.108V59.566H938.432V56.164C938.432 50.98 937.298 46.768 935.03 43.528C932.924 40.288 928.955 37.939 923.123 36.481C917.291 34.861 908.948 34.051 898.094 34.051C889.346 34.051 882.461 34.618 877.439 35.752C872.579 36.886 869.096 38.587 866.99 40.855C864.884 43.123 863.831 46.039 863.831 49.603C863.831 52.681 864.479 55.273 865.775 57.379C867.071 59.323 869.096 60.862 871.85 61.996C874.604 63.13 878.249 64.102 882.785 64.912L928.469 72.202C940.619 74.146 950.258 77.305 957.386 81.679C964.676 86.053 969.941 91.399 973.181 97.717C976.421 103.873 978.041 110.677 978.041 118.129C978.041 126.877 975.611 135.139 970.751 142.915C965.891 150.529 958.115 156.685 947.423 161.383C936.731 166.081 922.799 168.43 905.627 168.43ZM1015.97 166H979.52V3.19H1015.97V166ZM1098.47 168.43C1081.95 168.43 1067.61 165.028 1055.46 158.224C1043.47 151.258 1034.24 141.538 1027.76 129.064C1021.28 116.428 1018.04 101.605 1018.04 84.595C1018.04 67.585 1021.68 52.843 1028.97 40.369C1036.26 27.733 1046.63 18.013 1060.08 11.209C1073.69 4.243 1089.8 0.759998 1108.43 0.759998C1125.44 0.759998 1140.19 3.352 1152.66 8.536C1165.13 13.558 1174.77 20.767 1181.58 30.163C1188.38 39.397 1191.78 50.575 1191.78 63.697V65.641H1151.2V63.697C1151.2 54.139 1147.8 47.092 1141 42.556C1134.19 38.02 1123.01 35.752 1107.46 35.752C1095.15 35.752 1085.27 37.372 1077.82 40.612C1070.53 43.69 1065.18 48.793 1061.78 55.921C1058.38 62.887 1056.68 72.445 1056.68 84.595C1056.68 96.583 1058.3 106.141 1061.54 113.269C1064.78 120.397 1069.96 125.581 1077.09 128.821C1084.38 131.899 1093.94 133.438 1105.76 133.438C1118.72 133.438 1128.85 132.628 1136.14 131.008C1143.43 129.226 1148.45 126.229 1151.2 122.017C1154.12 117.805 1155.58 111.892 1155.58 104.278V96.988L1192.03 96.745V100.39L1160.92 131.008H1156.31C1154.36 138.136 1151.12 144.535 1146.59 150.205C1142.05 155.875 1135.81 160.33 1127.87 163.57C1120.1 166.81 1110.3 168.43 1098.47 168.43ZM1192.03 166H1158.25V122.017L1155.58 117.643V82.408H1192.03V166ZM1192.03 106.951H1100.42V79.978H1192.03V106.951ZM1232.95 166H1196.5V3.19H1235.38L1293.7 80.221L1316.06 114.484H1318.73L1317.03 81.679V3.19H1353.48V166H1314.6L1254.58 88.24L1233.92 57.622H1231.49L1232.95 87.511V166Z" fill="black"/>
</svg>
