<svg width="126" height="18" viewBox="0 0 126 18" fill="none" xmlns="http://www.w3.org/2000/svg">
<path d="M4.56 17H0.96V0.92H4.8L10.56 8.528L12.768 11.912H13.032L12.864 8.672V0.92H16.464V17H12.624L6.696 9.32L4.656 6.296H4.416L4.56 9.248V17ZM25.6701 17.24C23.9261 17.24 22.4701 16.96 21.3021 16.4C20.1341 15.84 19.2541 15.04 18.6621 14C18.0701 12.96 17.7741 11.72 17.7741 10.28V0.92H21.3741V10.016C21.3741 10.928 21.5021 11.664 21.7581 12.224C22.0301 12.768 22.4781 13.16 23.1021 13.4C23.7421 13.624 24.5981 13.736 25.6701 13.736C26.7741 13.736 27.6381 13.624 28.2621 13.4C28.8861 13.16 29.3261 12.768 29.5821 12.224C29.8381 11.664 29.9661 10.928 29.9661 10.016V0.92H33.5661V10.28C33.5661 11.72 33.2701 12.96 32.6781 14C32.0861 15.04 31.2061 15.84 30.0381 16.4C28.8861 16.96 27.4301 17.24 25.6701 17.24ZM38.5224 17H33.8184L40.0824 9.056V8.792L33.8184 0.92H38.5224L43.0344 6.656H43.2984L47.6424 0.92H52.3464L46.1064 8.864V9.128L52.3464 17H47.6424L43.1544 11.192H42.8904L38.5224 17ZM60.6437 17H53.8757V13.76H60.6437C61.7477 13.76 62.6277 13.632 63.2837 13.376C63.9557 13.104 64.4437 12.624 64.7477 11.936C65.0677 11.232 65.2277 10.24 65.2277 8.96C65.2277 7.664 65.0677 6.672 64.7477 5.984C64.4437 5.296 63.9557 4.824 63.2837 4.568C62.6277 4.296 61.7477 4.16 60.6437 4.16H53.8757V0.92H60.6437C62.3717 0.92 63.8597 1.24 65.1077 1.88C66.3717 2.52 67.3477 3.44 68.0357 4.64C68.7237 5.84 69.0677 7.28 69.0677 8.96C69.0677 10.64 68.7237 12.08 68.0357 13.28C67.3477 14.48 66.3717 15.4 65.1077 16.04C63.8597 16.68 62.3717 17 60.6437 17ZM56.4917 17H52.8917V0.92H56.4917V17ZM77.4454 17.24C75.8294 17.24 74.4534 17.032 73.3174 16.616C72.1814 16.184 71.3174 15.552 70.7254 14.72C70.1334 13.872 69.8374 12.824 69.8374 11.576V11.432H73.4374V11.864C73.4374 12.36 73.5414 12.76 73.7494 13.064C73.9734 13.368 74.3734 13.592 74.9494 13.736C75.5254 13.88 76.3574 13.952 77.4454 13.952C78.4054 13.952 79.1414 13.904 79.6534 13.808C80.1654 13.696 80.5174 13.528 80.7094 13.304C80.9014 13.08 80.9974 12.792 80.9974 12.44C80.9974 11.944 80.8294 11.584 80.4934 11.36C80.1734 11.136 79.6054 10.952 78.7894 10.808L74.2774 10.16C73.3174 10 72.4934 9.736 71.8054 9.368C71.1334 9 70.6134 8.512 70.2454 7.904C69.8774 7.28 69.6934 6.528 69.6934 5.648C69.6934 5.04 69.8214 4.44 70.0774 3.848C70.3494 3.256 70.7734 2.728 71.3494 2.264C71.9254 1.784 72.6774 1.4 73.6054 1.112C74.5494 0.823999 75.7014 0.68 77.0614 0.68C78.7094 0.68 80.0614 0.92 81.1174 1.4C82.1894 1.864 82.9894 2.528 83.5174 3.392C84.0454 4.24 84.3094 5.224 84.3094 6.344V6.488H80.6854V6.152C80.6854 5.64 80.5734 5.224 80.3494 4.904C80.1414 4.584 79.7494 4.352 79.1734 4.208C78.5974 4.048 77.7734 3.968 76.7014 3.968C75.8374 3.968 75.1574 4.024 74.6614 4.136C74.1814 4.248 73.8374 4.416 73.6294 4.64C73.4214 4.864 73.3174 5.152 73.3174 5.504C73.3174 5.808 73.3814 6.064 73.5094 6.272C73.6374 6.464 73.8374 6.616 74.1094 6.728C74.3814 6.84 74.7414 6.936 75.1894 7.016L79.7014 7.736C80.9014 7.928 81.8534 8.24 82.5574 8.672C83.2774 9.104 83.7974 9.632 84.1174 10.256C84.4374 10.864 84.5974 11.536 84.5974 12.272C84.5974 13.136 84.3574 13.952 83.8774 14.72C83.3974 15.472 82.6294 16.08 81.5734 16.544C80.5174 17.008 79.1414 17.24 77.4454 17.24ZM93.1674 17.24C91.5354 17.24 90.1194 16.904 88.9194 16.232C87.7354 15.544 86.8234 14.584 86.1834 13.352C85.5434 12.104 85.2234 10.64 85.2234 8.96C85.2234 7.28 85.5834 5.824 86.3034 4.592C87.0234 3.344 88.0474 2.384 89.3754 1.712C90.7194 1.024 92.3114 0.68 94.1514 0.68C95.8314 0.68 97.2874 0.936 98.5194 1.448C99.7514 1.944 100.703 2.656 101.375 3.584C102.047 4.496 102.383 5.6 102.383 6.896V7.088H98.3754V6.896C98.3754 5.952 98.0394 5.256 97.3674 4.808C96.6954 4.36 95.5914 4.136 94.0554 4.136C92.8394 4.136 91.8634 4.296 91.1274 4.616C90.4074 4.92 89.8794 5.424 89.5434 6.128C89.2074 6.816 89.0394 7.76 89.0394 8.96C89.0394 10.144 89.1994 11.088 89.5194 11.792C89.8394 12.496 90.3514 13.008 91.0554 13.328C91.7754 13.632 92.7194 13.784 93.8874 13.784C95.1674 13.784 96.1674 13.704 96.8874 13.544C97.6074 13.368 98.1034 13.072 98.3754 12.656C98.6634 12.24 98.8074 11.656 98.8074 10.904V10.184L102.407 10.16V10.52L99.3354 13.544H98.8794C98.6874 14.248 98.3674 14.88 97.9194 15.44C97.4714 16 96.8554 16.44 96.0714 16.76C95.3034 17.08 94.3354 17.24 93.1674 17.24ZM102.407 17H99.0714V12.656L98.8074 12.224V8.744H102.407V17ZM102.407 11.168H93.3594V8.504H102.407V11.168ZM107.289 17H103.689V0.92H107.529L113.289 8.528L115.497 11.912H115.761L115.593 8.672V0.92H119.193V17H115.353L109.425 9.32L107.385 6.296H107.145L107.289 9.248V17ZM125.015 17H120.383V12.8H125.015V17Z" fill="black"/>
</svg>
